# xmcd CD database file
#
# Track frame offsets:
#	150
#	23826
#	48615
#	73610
#	95729
#
# Disc length: 1627 seconds
#
# Revision: 3
# Processed by: cddbd v1.5PL3 Copyright (c) Steve Scherf et al.
# Submitted via: CDex 1.51
#
DISCID=41065905
DTITLE=EGO-WRAPPIN' - 色彩のブルース
DYEAR=2000
DGENRE=Blues
TTITLE0=NERVOUS BREAK DOWN
TTITLE1=GIGOLO
TTITLE2=色彩のブルース
TTITLE3=FLOWERS
TTITLE4=タバコ
EXTD=YEAR: 2000
EXTT0=
EXTT1=
EXTT2=
EXTT3=
EXTT4=
PLAYORDER=
